{"title":"Z.Storm.2014.BRRip.720p.x264.AAC-PRiSTiNE [P2PDL]","uid":10938766,"size":562698113,"categoryP":"video","categoryS":"hd___movies","magnet":"?xt=urn:btih:f4d834494941ef8b0df433cfaf2279dae13494ab&amp;dn=Z.Storm.2014.BRRip.720p.x264.AAC-PRiSTiNE+%5BP2PDL%5D&amp;tr=udp%3A%2F%2Ftracker.openbittorrent.com%3A80&amp;tr=udp%3A%2F%2Fopen.demonii.com%3A1337&amp;tr=udp%3A%2F%2Ftracker.coppersurfer.tk%3A6969&amp;tr=udp%3A%2F%2Fexodus.desync.com%3A6969","seeders":1,"leechers":0,"uploader":"ValidusVyto","files":-1,"time":1409476623,"description":" ___    ___       ___   _____    _   _  ___   \n(  _` |  _`  _ (  _`(_   _)_ ( ) ( )(  _` \n| |_) )| (_) )(_)| (_(_) | | (_)| `| || (_(_)\n| ,__/'| ,  / | |`__   | | | || , ` ||  _)_ \n| |    | |  | |( )_) | | | | || |` || (_( )\n(_)    (_) (_)(_)`____) (_) (_)(_) (_)(____/' \n\n\n\nZ.Storm.2014.BRRip.720p.x264.AAC-PRiSTiNE\n\n\nGenre:  Action | Crime &lt;a href=&quot;\nhttp://www.imdb.com/title/tt3469440/&quot; rel=&quot;nofollow&quot; target=&quot;_NEW&quot;&gt;\nhttp://www.imdb.com/title/tt3469440/&lt;/a&gt;\n\n\nGeneral\nFormat                         : MPEG-4\nFile size                      : 528 MiB\nDuration                       : 1h 31mn\nOverall bit rate               : 804 Kbps\n\nVideo\nFormat                         : AVC\nBit rate                       : 720 Kbps\nWidth                          : 1 280 pixels\nHeight                         : 544 pixels\nDisplay aspect ratio           : 2.40:1\nFrame rate mode                : Constant\nFrame rate                     : 24.000 fps\nBit depth                      : 8 bits\nStream size                    : 472 MiB (89%)\nWriting library                : x264 core 142 r2389 956c8d8\n\nAudio\nFormat                         : AAC\nBit rate                       : 80.0 Kbps\nChannel(s)                     : 2 channels\nChannel positions              : Front: L R\nSampling rate                  : 48.0 KHz\nStream size                    : 52.5 MiB (10%)\nLanguage                       : Chinese(Mandarin)\n\nSubtitle                       : Yes (English)\n &lt;a href=&quot;\nhttp://someimage.com/DaqH0iz&quot; rel=&quot;nofollow&quot; target=&quot;_NEW&quot;&gt;\nhttp://someimage.com/DaqH0iz&lt;/a&gt; &lt;a href=&quot;\nhttp://someimage.com/ZcTSCKv&quot; rel=&quot;nofollow&quot; target=&quot;_NEW&quot;&gt;\nhttp://someimage.com/ZcTSCKv&lt;/a&gt; &lt;a href=&quot;\nhttp://someimage.com/zJG0wil&quot; rel=&quot;nofollow&quot; target=&quot;_NEW&quot;&gt;\nhttp://someimage.com/zJG0wil&lt;/a&gt; &lt;a href=&quot;\nhttp://someimage.com/PjuIgFz&quot; rel=&quot;nofollow&quot; target=&quot;_NEW&quot;&gt;\nhttp://someimage.com/PjuIgFz&lt;/a&gt; &lt;a href=&quot;\nhttp://someimage.com/JY0j9QG&quot; rel=&quot;nofollow&quot; target=&quot;_NEW&quot;&gt;\nhttp://someimage.com/JY0j9QG&lt;/a&gt; &lt;a href=&quot;\nhttp://someimage.com/RweY4TA&quot; rel=&quot;nofollow&quot; target=&quot;_NEW&quot;&gt;\nhttp://someimage.com/RweY4TA&lt;/a&gt; &lt;a href=&quot;\nhttp://someimage.com/ZWXuhr0&quot; rel=&quot;nofollow&quot; target=&quot;_NEW&quot;&gt;\nhttp://someimage.com/ZWXuhr0&lt;/a&gt; &lt;a href=&quot;\nhttp://someimage.com/R68Wvlr&quot; rel=&quot;nofollow&quot; target=&quot;_NEW&quot;&gt;\nhttp://someimage.com/R68Wvlr&lt;/a&gt;\n\n----------------------------------------------------------------------------------------------------\n\n\nRecommend to you to use latest version of VLC player. Install K-Lite Codec Pack or shark007 codecs\nin case of any kind of problem in playback (For non-VLC Media Player users). Alternatively, install\nCore AVC codecs, the fastest decoder that there is coupled with Community Center Codec Pack and play\non Windows Media Player Classic. Check sample to be sure.\n\nEncoder Notes: Looking For Early Access To Anything You Can Provide DVDScr, R5, DVDR, BluRay, Direct\nAudio, Music Releases and Seedboxes. We require dedicated servers, so as to do more \nand fast releases of movies.\n\nFind us @ P2PDL\nSearch it!","torrent":{"xt":"urn:btih:f4d834494941ef8b0df433cfaf2279dae13494ab","amp;dn":"Z.Storm.2014.BRRip.720p.x264.AAC-PRiSTiNE+%5BP2PDL%5D","amp;tr":["udp%3A%2F%2Ftracker.openbittorrent.com%3A80","udp%3A%2F%2Fopen.demonii.com%3A1337","udp%3A%2F%2Ftracker.coppersurfer.tk%3A6969","udp%3A%2F%2Fexodus.desync.com%3A6969"],"infoHash":"f4d834494941ef8b0df433cfaf2279dae13494ab","infoHashBuffer":{"type":"Buffer","data":[244,216,52,73,73,65,239,139,13,244,51,207,175,34,121,218,225,52,148,171]},"announce":[],"urlList":[]}}